<?xml version="1.0" encoding="utf-8"?>
<!-- Generator: Adobe Illustrator 24.2.3, SVG Export Plug-In . SVG Version: 6.00 Build 0)  -->
<svg version="1.1" id="Layer_1" xmlns="http://www.w3.org/2000/svg" xmlns:xlink="http://www.w3.org/1999/xlink" x="0px" y="0px"
	 viewBox="0 0 64 10" style="enable-background:new 0 0 64 10;" xml:space="preserve">
<style type="text/css">
	.st0{display:none;}
	.st1{display:inline;}
	.st2{fill:none;stroke:#000000;stroke-width:2;stroke-miterlimit:10;}
</style>
<g id="Layer_1_1_" class="st0">
	<g class="st1">
		<g>
			<g>
				<path d="M63.4-3.5v20.8H42.6V-3.5H63.4 M63.7-3.7H42.3v21.3h21.3L63.7-3.7L63.7-3.7z"/>
			</g>
			<g>
				<path d="M63.4-25v20.8H42.6V-25H63.4 M63.7-25.2H42.3v21.3h21.3L63.7-25.2L63.7-25.2z"/>
			</g>
			<g>
				<path d="M63.4-46.5v20.8H42.6v-20.8H63.4 M63.7-46.7H42.3v21.3h21.3L63.7-46.7L63.7-46.7z"/>
			</g>
		</g>
		<g>
			<g>
				<path d="M42.4-3.5v20.8H21.6V-3.5H42.4 M42.7-3.7H21.3v21.3h21.3L42.7-3.7L42.7-3.7z"/>
			</g>
			<g>
				<path d="M42.4-25v20.8H21.6V-25H42.4 M42.7-25.2H21.3v21.3h21.3L42.7-25.2L42.7-25.2z"/>
			</g>
			<g>
				<path d="M42.4-46.5v20.8H21.6v-20.8H42.4 M42.7-46.7H21.3v21.3h21.3L42.7-46.7L42.7-46.7z"/>
			</g>
		</g>
		<g>
			<g>
				<path d="M21.4-3.5v20.8H0.6V-3.5H21.4 M21.7-3.7H0.3v21.3h21.3L21.7-3.7L21.7-3.7z"/>
			</g>
			<g>
				<path d="M21.4-25v20.8H0.6V-25H21.4 M21.7-25.2H0.3v21.3h21.3L21.7-25.2L21.7-25.2z"/>
			</g>
			<g>
				<path d="M21.4-46.5v20.8H0.6v-20.8H21.4 M21.7-46.7H0.3v21.3h21.3L21.7-46.7L21.7-46.7z"/>
			</g>
		</g>
	</g>
</g>
<g id="Layer_2_1_" class="st0">
	
		<image style="display:inline;overflow:visible;enable-background:new    ;" width="346" height="68" xlink:href="E5E01F71862C9A79.png"  transform="matrix(0.185 0 0 0.185 0 0.447)">
	</image>
</g>
<g id="Layer_3">
	<g>
		<path class="st2" d="M0,2.4c8,0,8,6,16,6c8,0,8-6,16-6c8,0,8,6,16,6s8-6,16-6"/>
	</g>
</g>
</svg>
